<svg version="1.1" viewBox="0 0 18.435 18.435" xmlns="http://www.w3.org/2000/svg">
 <rect width="18.435" height="18.435" rx="3.8406" ry="3.8406" fill="#1d4596" style="paint-order:markers fill stroke"/>
 <g transform="matrix(.31 0 0 .31 9.2174 9.2174)" fill="#1d4596">
  <g transform="translate(-12,-4.5)">
   <ellipse rx="1" ry="2.5" fill="#1d4596"/>
  </g>
  <g transform="translate(1.33 -3.9516)">
   <ellipse rx="1" ry="2.5" fill="#1d4596"/>
  </g>
  <path d="m-10.769 0.36 5-6c0.354-0.423 0.982-0.482 1.409-0.128 0.424 0.354 0.481 0.984 0.128 1.408l-4.582 5.498 1.708 3.415c0.247 0.494 0.047 1.095-0.447 1.342-0.143 0.071-0.296 0.105-0.446 0.105-0.367 0-0.72-0.202-0.896-0.553l-2-4c-0.177-0.355-0.127-0.782 0.126-1.087zm12.626 13.155c-0.187 0.312-0.518 0.485-0.858 0.485-0.175 0-0.353-0.046-0.514-0.143-0.474-0.284-0.627-0.898-0.343-1.372 0.416-0.693 0.641-1.333 0.742-1.926-2.446 2.413-4.987 3.641-7.576 3.641-0.229 0-0.458-0.01-0.688-0.029-2.904-0.242-5.2-1.969-6.666-3.45 0.147 0.514-0.131 1.059-0.642 1.227-0.104 0.034-0.21 0.05-0.313 0.05-0.418 0-0.808-0.263-0.946-0.682-0.049-0.146-1.168-3.614 1.241-6.023 0.391-0.391 1.023-0.391 1.414 0s0.391 1.023 0 1.414c-0.125 0.124-0.212 0.262-0.307 0.397 0.05 0.022 0.105 0.03 0.152 0.062 0.225 0.148 5.216 3.268 12.93-0.515-0.456-0.446-0.873-0.718-1-0.795-0.471-0.287-0.621-0.901-0.336-1.372 0.284-0.473 0.896-0.625 1.368-0.341 2.025 1.215 5.123 4.738 2.342 9.372zm-1.914-4.858c-3 1.401-5.649 1.87-7.832 1.87-1.621 0-2.972-0.256-4.037-0.568 1.201 1.049 2.822 2.065 4.723 2.22 2.37 0.198 4.769-1.001 7.146-3.522zm-5.943 7.343h-4c-0.553 0-1 0.448-1 1s0.447 1 1 1h4c0.553 0 1-0.448 1-1s-0.447-1-1-1zm-6.996-24.009c0.248 0 0.497-0.091 0.691-0.272 0.032-0.03 0.786-0.719 2.305-0.719 0.553 0 1-0.448 1-1s-0.447-1-1-1c-2.347 0-3.575 1.161-3.707 1.293-0.386 0.386-0.385 1.004-6e-3 1.396 0.195 0.201 0.455 0.302 0.717 0.302zm15.238-3.961c-0.533-0.13-1.073 0.19-1.209 0.724s0.188 1.077 0.72 1.215c0.133 0.034 3.247 0.881 3.247 4.031 0 0.552 0.447 1 1 1s1-0.448 1-1c0-3.782-3.112-5.559-4.758-5.97zm14.907 17.11c0.481 1.218 1.36 4.108 0.044 6.527-1.019 1.873-3.065 2.992-6.083 3.327-0.01 1e-3 -0.02 1e-3 -0.03 2e-3 -0.871 1.378-2.035 2.569-3.237 3.556-2.879 6.064-6.156 9.277-9.745 9.543-0.163 0.012-0.324 0.018-0.484 0.018-4.356 0-7.318-4.365-7.446-4.557-0.095-0.143-0.135-0.3-0.15-0.46-5.491-1.842-7.632-6.086-8.913-8.648-3.849-7.699-1.501-16.408 0.925-22.045-0.761-0.961-2.737-4.169 0.112-8.917 0.013-0.021 0.034-0.033 0.048-0.053-0.553-1.646-0.567-3.194-0.016-4.616 1.32-3.411 5.354-4.716 5.524-4.77 0.405-0.127 0.846 0.015 1.1 0.353 0.255 0.339 0.268 0.802 0.034 1.155-0.683 1.028-1.147 2.39-0.923 2.697 0.087 0.117 0.707 0.326 2.392-0.098 0.531-1.011 2.023-3.404 4.559-4.157 1.536-0.456 3.149-0.24 4.809 0.642 0.961-1.428 3.063-4.041 5.61-3.95 1.678 0.036 3.142 1.17 4.355 3.371 1.535 0.236 5.42 1.42 7.235 7.356 1.663 1.392 9.453 8.99 0.987 23.1-0.133 0.222-0.339 0.374-0.569 0.443-0.042 0.06-0.093 0.12-0.138 0.181zm-32.285-20.643c0.267 0.458 0.678 0.718 1.222 0.772 0.75 0.075 2.838-0.163 6.164-3.931 0.69-0.782 1.97-1.118 3.269-0.853 1.193 0.242 2.188 0.944 2.854 1.984 0.91-0.563 2.335-1.17 4.059-0.976 2.166 0.247 4.162 1.676 5.94 4.25 1.115-0.435 3.161-1.027 4.959-0.444 1.139 0.369 2.001 1.126 2.563 2.252 0.76 1.521 0.872 2.886 0.333 4.059-0.341 0.741-0.892 1.268-1.428 1.633 1.205 1.163 2.968 3.207 3.604 5.694 4.214-10.828-2.648-15.885-2.98-16.121-0.186-0.132-0.323-0.324-0.386-0.542-1.75-6.128-5.871-6.271-6.046-6.274-0.372-7e-3 -0.719-0.22-0.886-0.553-0.622-1.245-1.625-2.733-2.87-2.76h-0.037c-1.806 0-3.773 2.808-4.324 3.799-0.136 0.244-0.367 0.42-0.639 0.486-0.268 0.066-0.557 0.016-0.79-0.14-1.454-0.97-2.808-1.279-4.015-0.919-2.251 0.669-3.5 3.454-3.512 3.481-0.118 0.276-0.354 0.485-0.645 0.567-0.938 0.269-3.798 1.086-4.979-0.531-0.471-0.645-0.501-1.454-0.341-2.236-0.771 0.568-1.529 1.345-1.918 2.353-0.54 1.409-0.262 3.074 0.829 4.95zm-1.819 5.716c0.74-1.49 1.4-2.615 1.784-3.236-0.636-0.265-1.169-0.704-1.563-1.299-0.881 2.045-0.619 3.589-0.221 4.535zm32.059 15.232c-0.017-0.033-0.015-0.07-0.028-0.104-0.032-0.088-0.064-0.175-0.071-0.268-4e-3 -0.05 0.011-0.098 0.015-0.147 6e-3 -0.079 6e-3 -0.158 0.031-0.234 0.019-0.058 0.057-0.106 0.086-0.159 0.031-0.058 0.05-0.12 0.094-0.173 1.1-1.32 1.551-2.683 1.377-4.166-0.409-3.508-4.171-6.365-4.208-6.394-0.309-0.231-0.457-0.62-0.381-0.998s0.363-0.679 0.738-0.772c6e-3 -1e-3 1.237-0.335 1.657-1.263 0.268-0.593 0.164-1.373-0.31-2.319-0.317-0.636-0.771-1.042-1.386-1.243-1.478-0.48-3.575 0.33-4.259 0.683-0.463 0.24-1.032 0.083-1.309-0.358-1.55-2.479-3.208-3.841-4.927-4.046-1.996-0.238-3.508 1.212-3.522 1.227-0.246 0.241-0.6 0.341-0.937 0.259-0.335-0.081-0.606-0.327-0.715-0.654-0.46-1.38-1.408-1.765-1.932-1.872-0.708-0.142-1.241 0.07-1.37 0.217-2.889 3.273-5.176 4.35-6.786 4.57-0.027 0.111-0.065 0.222-0.132 0.323-0.097 0.146-9.604 14.667-3.938 25.999 2.14 4.274 4.913 8.447 13.109 8.447 0.553 0 1 0.448 1 1s-0.447 1-1 1c-1.097 0-2.097-0.085-3.036-0.22 1.094 1.106 2.889 2.473 4.995 2.319 2.132-0.162 4.273-1.917 6.288-5.113-1.028 0.573-1.761 0.893-1.853 0.933-0.128 0.055-0.262 0.081-0.393 0.081-0.388 0-0.757-0.227-0.92-0.605-0.218-0.507 0.018-1.095 0.524-1.313 0.066-0.028 6.646-2.903 8.466-7.453 0.205-0.513 0.791-0.761 1.3-0.557 0.333 0.134 0.538 0.431 0.597 0.76 1.721-0.357 2.889-1.062 3.465-2.113 1.183-2.165-0.313-5.243-0.329-5.274zm-3.397-10.152c-0.39-0.39-1.021-0.39-1.412-1e-3 -0.391 0.39-0.392 1.022-3e-3 1.414 0.018 0.019 1.852 1.887 2.76 4.611 0.139 0.418 0.529 0.683 0.948 0.683 0.104 0 0.211-0.017 0.316-0.052 0.523-0.175 0.807-0.741 0.632-1.265-1.061-3.186-3.152-5.302-3.241-5.39zm-2 4c-0.386-0.386-1.007-0.385-1.398-5e-3 -0.393 0.38-0.401 1.011-0.026 1.409 9e-3 9e-3 0.88 0.953 1.77 3.62 0.138 0.418 0.528 0.683 0.947 0.683 0.104 0 0.211-0.017 0.316-0.052 0.523-0.175 0.807-0.741 0.632-1.265-1.044-3.133-2.122-4.271-2.241-4.39z" stroke-linecap="round"/>
 </g>
 <g fill="#fde635">
  <path d="m8.0274 17.244c-0.28581-0.10686-0.69398-0.34977-0.818-0.48681-0.09913-0.10953-0.09176-0.11126 0.37749-0.08818 0.54761 0.02693 0.69633-0.03837 0.69633-0.30569 0-0.2394-0.12302-0.2973-0.72196-0.33982-1.7383-0.1234-2.771-0.84198-3.6031-2.5072-0.42428-0.84911-0.58601-1.571-0.58495-2.611 8.36e-4 -0.8193 0.10497-1.5429 0.34123-2.3713 0.26097-0.91497 0.79122-2.1375 1.2772-2.9447 0.1724-0.28635 0.22849-0.33334 0.50171-0.42025 0.4167-0.13256 0.91627-0.47646 1.4267-0.98215 0.38196-0.37839 0.44789-0.42096 0.65203-0.42096 0.26602 0 0.49511 0.1503 0.63952 0.41955 0.2132 0.39754 0.38079 0.46012 0.65487 0.24453 0.79128-0.62242 1.6447-0.38229 2.3992 0.67509 0.29829 0.41802 0.36592 0.43967 0.81859 0.262 0.73759-0.28949 1.2866-0.18295 1.5177 0.29455 0.18378 0.37964 0.16472 0.59908-0.07269 0.83648-0.10858 0.10858-0.23733 0.19742-0.28611 0.19742-0.08983 0-0.32938 0.26131-0.32938 0.35931 0 0.029331 0.23179 0.29664 0.51509 0.59402 0.59393 0.62346 0.88326 1.1342 0.92456 1.6322 0.0362 0.43656-0.01625 0.65244-0.25471 1.0483-0.22408 0.37196-0.22689 0.42165-0.05721 1.0095 0.12074 0.41834 0.1141 0.8474-0.01757 1.1341-0.1382 0.30096-0.27044 0.41369-0.68414 0.58326-0.27307 0.11192-0.3502 0.12419-0.39699 0.06312-0.03194-0.04169-0.11686-0.10711-0.18871-0.14539-0.19455-0.10363-0.32771-0.0031-0.54807 0.41384-0.34161 0.64631-1.1452 1.3474-2.1779 1.9002-0.46375 0.24822-0.56605 0.3766-0.46401 0.58232 0.09513 0.1918 0.31756 0.21215 0.62187 0.0569 0.13326-0.06799 0.25217-0.11374 0.26424-0.10167 0.03739 0.03739-0.59449 0.80042-0.82804 0.9999-0.49341 0.42146-1.136 0.5901-1.5949 0.41855zm-0.45547-2.5355c0.13976-0.13976 0.1452-0.22298 0.02574-0.39353-0.08575-0.12243-0.13027-0.12905-0.86768-0.12905-0.7374 0-0.78192 0.0066-0.86768 0.12905-0.11946 0.17055-0.11402 0.25378 0.02574 0.39353 0.10374 0.10374 0.19355 0.11613 0.84194 0.11613 0.64839 0 0.7382-0.01239 0.84194-0.11613zm0.46426-1.2338c0.29476-0.10904 0.84813-0.44176 1.2341-0.74204 0.19077-0.1484 0.2022-0.07713 0.03894 0.24289-0.14568 0.28555-0.11024 0.49483 0.09713 0.57368 0.2187 0.08315 0.36053-0.02219 0.53717-0.39898 0.13323-0.28419 0.15408-0.40386 0.15344-0.8805-7.92e-4 -0.58888-0.08599-0.8424-0.41953-1.2484-0.42293-0.51479-0.8537-0.68572-1.0341-0.41035-0.11242 0.17158-0.05699 0.3034 0.21812 0.5187l0.18702 0.14637-0.27151 0.11638c-1.2442 0.53332-2.3911 0.59008-3.4551 0.17097-0.32513-0.12807-0.35513-0.16676-0.21774-0.28079 0.18996-0.15765 0.02621-0.52258-0.2345-0.52258-0.31073 0-0.72356 0.73323-0.72356 1.2851 0 0.38401 0.11654 0.80136 0.24261 0.86883 0.16781 0.08981 0.36531 0.02114 0.44551-0.15489l0.06932-0.15214 0.22884 0.20674c0.84785 0.76598 1.9449 1.0157 2.9038 0.66099zm-1.1159-2.4566c0.18276-0.12801 0.16359-0.24961-0.13224-0.83864-0.14371-0.28614-0.26129-0.54957-0.26129-0.58539 0-0.03582 0.32661-0.45688 0.72581-0.93569 0.41652-0.4996 0.72581-0.92194 0.72581-0.99114 0-0.16589-0.16446-0.33294-0.32777-0.33294-0.1048 0-0.33341 0.23752-1.0071 1.0464-0.47935 0.5755-0.87155 1.0814-0.87155 1.1243 0 0.04287 0.15492 0.39274 0.34427 0.77748 0.40365 0.82018 0.52496 0.93116 0.8041 0.73564zm5.9647-0.37429c0.09324-0.10303 0.09705-0.1444 0.03347-0.3629-0.10494-0.3606-0.4466-1.0364-0.6167-1.2199-0.16761-0.18076-0.34607-0.20316-0.50106-0.0629-0.14839 0.13429-0.13304 0.26474 0.06584 0.55942 0.09462 0.14019 0.24513 0.43545 0.33449 0.65614 0.08936 0.22069 0.18333 0.43391 0.20882 0.47383 0.07163 0.11215 0.35791 0.08582 0.47513-0.04371zm0.9098-0.90884c0.05841-0.05286 0.10618-0.14602 0.10618-0.20703 0-0.33145-0.85303-1.7286-1.1334-1.8563-0.11011-0.05017-0.17016-0.04321-0.28681 0.03321-0.22169 0.14526-0.18566 0.32798 0.15247 0.77318 0.16501 0.21726 0.39058 0.59098 0.50128 0.8305 0.1107 0.23952 0.23045 0.45468 0.26612 0.47814 0.10944 0.07199 0.2826 0.0493 0.39415-0.05166zm-3.9798-1.0977c0.14925-0.22778 0.17265-0.92984 0.03956-1.1869-0.2574-0.49711-0.58632-0.07973-0.52631 0.66786 0.04747 0.59142 0.27814 0.83738 0.48675 0.51901zm-4.1353-0.22004c0.15565-0.20848 0.16434-0.90179 0.01484-1.1846-0.21796-0.41227-0.51038-0.10818-0.51409 0.5346-0.0024 0.40845 0.04068 0.59343 0.17316 0.74423 0.11146 0.12688 0.17461 0.10863 0.3261-0.09427zm5.5955-0.82496c0.23002-0.16111 0.14776-0.75484-0.17503-1.2635-0.42272-0.66607-1.3931-1.0826-1.5478-0.66432-0.08205 0.22181-0.0024 0.33015 0.37518 0.51036 0.54024 0.25783 0.83667 0.67207 0.8377 1.1706 3.1e-4 0.14968 0.17807 0.33716 0.31968 0.33716 0.03369 0 0.11933-0.04068 0.19031-0.09039zm-5.8797-0.95537c0.10388-0.064202 0.34213-0.14648 0.52944-0.18284 0.18731-0.03636 0.37322-0.091547 0.41314-0.12264 0.11072-0.086228 0.08653-0.36008-0.04209-0.47647-0.2936-0.2657-1.4531 0.18207-1.4531 0.56115 0 0.11655 0.19508 0.33752 0.29799 0.33752 0.03615 0 0.15072-0.052528 0.2546-0.11673z" style="paint-order:markers fill stroke"/>
  <path d="m14.856 8.665c-0.11578-0.38689-0.45237-0.92076-0.8455-1.341l-0.17762-0.18989 0.20205-0.20962c0.15036-0.156 0.21948-0.26957 0.27018-0.44398 0.20822-0.71624-0.27556-1.6274-0.97423-1.8349-0.36441-0.10822-0.96657-0.060485-1.4639 0.11605-0.041012 0.014557-0.13353-0.072766-0.2788-0.26315-0.27983-0.36673-0.64457-0.66863-1.0307-0.8531-0.29937-0.14303-0.31896-0.14663-0.79795-0.14663-0.4644 0-0.50559 0.00689-0.75904 0.127l-0.26799 0.127-0.2447-0.2293c-0.15686-0.14699-0.31984-0.25592-0.45403-0.30347-0.26075-0.092387-0.68646-0.096674-0.89623-0.00903-0.08586 0.035876-0.35 0.25409-0.58793 0.48569-0.68142 0.66333-1.1293 0.92743-1.5727 0.92743-0.29164 0-0.38045-0.076222-0.58018-0.49794-0.15452-0.32626-0.16147-0.35855-0.16147-0.75014 0-0.48394 0.07986-0.69169 0.38384-0.99858l0.18634-0.18813 0.02334 0.22506c0.07244 0.69842 0.5898 0.89038 1.6458 0.61067 0.13106-0.034713 0.17655-0.081746 0.32474-0.33575 0.21734-0.37252 0.50388-0.67744 0.78072-0.83084 0.18822-0.10429 0.25703-0.11928 0.54754-0.11928 0.30982 0 0.35544 0.01175 0.67526 0.17391 0.49735 0.25218 0.54429 0.24128 0.8334-0.19361 0.24038-0.36158 0.62149-0.74471 0.85157-0.8561 0.43679-0.21145 0.76993-0.037924 1.1537 0.60095 0.14717 0.24498 0.18283 0.27849 0.32824 0.3084 0.93535 0.19239 1.4532 0.68875 1.8389 1.7627 0.08352 0.23254 0.14126 0.31775 0.32829 0.48445 0.55153 0.49157 0.92887 1.1608 1.1136 1.9751 0.09007 0.39695 0.08828 1.2447-0.0036 1.7172-0.06352 0.32654-0.29566 1.1268-0.32687 1.1268-0.0066 0-0.03548-0.07826-0.06411-0.17391z" style="paint-order:markers fill stroke"/>
  <path d="m3.8931 5.9062c-0.06053-0.30142-0.0589-0.37315 0.016-0.70121 0.0868-0.38022 0.11648-0.41989 0.21777-0.29112 0.04437 0.056403 0.14687 0.13821 0.22779 0.18178 0.08092 0.043578 0.1424 0.088792 0.13663 0.10048-0.05309 0.10749-0.5318 0.94196-0.54038 0.94196-0.0062 0-0.03219-0.10435-0.057811-0.23189z" style="paint-order:markers fill stroke"/>
 </g>
</svg>
