<?xml version="1.0" encoding="UTF-8" standalone="no"?>
<svg
   width="5.9557061"
   height="3.161999"
   viewBox="0 0 5.9557061 3.161999"
   version="1.1"
   id="svg"
   sodipodi:docname="vaultman.svg"
   inkscape:version="1.3.2 (091e20e, 2023-11-25, custom)"
   xmlns:inkscape="http://www.inkscape.org/namespaces/inkscape"
   xmlns:sodipodi="http://sodipodi.sourceforge.net/DTD/sodipodi-0.dtd"
   xmlns="http://www.w3.org/2000/svg"
   xmlns:svg="http://www.w3.org/2000/svg">
  <defs id="defs">
  </defs>
  <sodipodi:namedview
     id="namedview"
     pagecolor="#505050"
     bordercolor="#eeeeee"
     borderopacity="1"
     inkscape:showpageshadow="0"
     inkscape:pageopacity="0"
     inkscape:pagecheckerboard="0"
     inkscape:deskcolor="#505050"
     inkscape:zoom="69.119688"
     inkscape:cx="2.8718301"
     inkscape:cy="0.35445762"
     inkscape:window-width="2560"
     inkscape:window-height="1369"
     inkscape:window-x="3832"
     inkscape:window-y="-8"
     inkscape:window-maximized="1"
     inkscape:current-layer="g" />
  <g
     transform="matrix(0.31,0,0,0.31,5.0371363,-1.2400011)"
     id="g">
    <path
      style="fill:#4996f1"
      d="M 1.857,13.515 C 1.67,13.827 1.339,14 0.999,14 0.824,14 0.646,13.954 0.485,13.857 0.011,13.573 -0.142,12.959 0.142,12.485 0.558,11.792 0.783,11.152 0.884,10.559 -1.562,12.972 -4.103,14.2 -6.692,14.2 c -0.229,0 -0.458,-0.01 -0.688,-0.029 -2.904,-0.242 -5.2,-1.969 -6.666,-3.45 0.147,0.514 -0.131,1.059 -0.642,1.227 -0.104,0.034 -0.21,0.05 -0.313,0.05 -0.418,0 -0.808,-0.263 -0.946,-0.682 -0.049,-0.146 -1.168,-3.614 1.241,-6.023 0.391,-0.391 1.023,-0.391 1.414,0 0.391,0.391 0.391,1.023 0,1.414 -0.125,0.124 -0.212,0.262 -0.307,0.397 0.05,0.022 0.105,0.03 0.152,0.062 0.225,0.148 5.216,3.268 12.93,-0.515 C -0.973,6.205 -1.39,5.933 -1.517,5.856 -1.988,5.569 -2.138,4.955 -1.853,4.484 -1.569,4.011 -0.957,3.859 -0.485,4.143 1.54,5.358 4.638,8.881 1.857,13.515 Z M -0.057,8.657 c -3,1.401 -5.649,1.87 -7.832,1.87 -1.621,0 -2.972,-0.256 -4.037,-0.568 1.201,1.049 2.822,2.065 4.723,2.22 2.37,0.198 4.769,-1.001 7.146,-3.522 z"
      stroke-linecap="round"
      id="logo-smile"
      sodipodi:nodetypes="cscccscccscsscccccccccsccc" />
  </g>
</svg>
